<svg xmlns="http://www.w3.org/2000/svg" viewBox="0 0 64 64">
  <defs>
    <linearGradient id="grad" x1="0%" x2="100%" y1="0%" y2="100%">
      <stop offset="0%" stop-color="#fc5218" />
      <stop offset="100%" stop-color="#ff8a3d" />
    </linearGradient>
  </defs>
  <rect width="64" height="64" rx="14" fill="url(#grad)" />
  <path
    fill="#fff"
    d="M20 22c0-3.3 2.7-6 6-6h12c6.1 0 11 4.9 11 11s-4.9 11-11 11h-5c-1.1 0-2 .9-2 2v8h-6v-8c0-4.4 3.6-8 8-8h5c2.8 0 5-2.2 5-5s-2.2-5-5-5H26c-.6 0-1 .4-1 1v3h-5v-4z"
  />
</svg>
